#define leftarrow20_width 20
#define leftarrow20_height 20
static unsigned char leftarrow20_bits[] = {
   0x00, 0x00, 0x00, 0x00, 0x04, 0x00, 0x00, 0x06, 0x00, 0x00, 0x07, 0x00,
   0x80, 0x05, 0x00, 0xc0, 0x04, 0x00, 0x60, 0x04, 0x00, 0x30, 0xfc, 0x07,
   0x18, 0x00, 0x04, 0x0c, 0x00, 0x04, 0x0c, 0x00, 0x04, 0x18, 0x00, 0x04,
   0x30, 0xfc, 0x07, 0x60, 0x04, 0x00, 0xc0, 0x04, 0x00, 0x80, 0x05, 0x00,
   0x00, 0x07, 0x00, 0x00, 0x06, 0x00, 0x00, 0x04, 0x00, 0x00, 0x00, 0x00};
