#define leftarrow_width 16
#define leftarrow_height 16
static char leftarrow_bits[] = {
   0x00, 0x00, 0x00, 0x01, 0x80, 0x01, 0xc0, 0x01, 0x60, 0x01, 0x30, 0x01,
   0x18, 0x7f, 0x0c, 0x40, 0x0c, 0x40, 0x18, 0x7f, 0x30, 0x01, 0x60, 0x01,
   0xc0, 0x01, 0x80, 0x01, 0x00, 0x01, 0x00, 0x00};
