#define lrarrow_width 16
#define lrarrow_height 16
static char lrarrow_bits[] = {
   0x00, 0x00, 0x00, 0x00, 0x20, 0x04, 0x30, 0x0c, 0x18, 0x18, 0x0c, 0x30,
   0xfe, 0x7f, 0x03, 0xc0, 0x03, 0xc0, 0xfe, 0x7f, 0x0c, 0x30, 0x18, 0x18,
   0x30, 0x0c, 0x20, 0x04, 0x00, 0x00, 0x00, 0x00};
