#define plus_width 16
#define plus_height 16
static char plus_bits[] = {
   0x00, 0x00, 0x00, 0x00, 0x00, 0x00, 0x80, 0x01, 0x80, 0x01, 0x80, 0x01,
   0x80, 0x01, 0xf8, 0x1f, 0xf8, 0x1f, 0x80, 0x01, 0x80, 0x01, 0x80, 0x01,
   0x80, 0x01, 0x00, 0x00, 0x00, 0x00, 0x00, 0x00};
