#define rightarrow_width 16
#define rightarrow_height 16
static char rightarrow_bits[] = {
   0x00, 0x00, 0x80, 0x00, 0x80, 0x01, 0x80, 0x03, 0x80, 0x06, 0x80, 0x0c,
   0xfe, 0x18, 0x02, 0x30, 0x02, 0x30, 0xfe, 0x18, 0x80, 0x0c, 0x80, 0x06,
   0x80, 0x03, 0x80, 0x01, 0x80, 0x00, 0x00, 0x00};
