#define rightarrow20_width 20
#define rightarrow20_height 20
static unsigned char rightarrow20_bits[] = {
   0x00, 0x00, 0x00, 0x00, 0x02, 0x00, 0x00, 0x06, 0x00, 0x00, 0x0e, 0x00,
   0x00, 0x1a, 0x00, 0x00, 0x32, 0x00, 0x00, 0x62, 0x00, 0xfe, 0xc3, 0x00,
   0x02, 0x80, 0x01, 0x02, 0x00, 0x03, 0x02, 0x00, 0x03, 0x02, 0x80, 0x01,
   0xfe, 0xc3, 0x00, 0x00, 0x62, 0x00, 0x00, 0x32, 0x00, 0x00, 0x1a, 0x00,
   0x00, 0x0e, 0x00, 0x00, 0x06, 0x00, 0x00, 0x02, 0x00, 0x00, 0x00, 0x00};
