#define toff12_width 12
#define toff12_height 12
static unsigned char toff12_bits[] = {
  0x00, 0x00, 0x00, 0x00, 0x00, 0x00, 0xfe, 0x01, 0x02, 0x01, 0x02, 0x01,
  0x02, 0x01, 0x02, 0x01, 0x02, 0x01, 0x02, 0x01, 0xfe, 0x01, 0x00, 0x00,
  };
