#define toff16_width 16
#define toff16_height 16
static unsigned char toff16_bits[] = {
  0x00, 0x00, 0x00, 0x00, 0x00, 0x00, 0x00, 0x00, 0xfe, 0x0f, 0x02, 0x08,
  0x02, 0x08, 0x02, 0x08, 0x02, 0x08, 0x02, 0x08, 0x02, 0x08, 0x02, 0x08,
  0x02, 0x08, 0x02, 0x08, 0xfe, 0x0f, 0x00, 0x00, };
