#define ton16_width 16
#define ton16_height 16
static unsigned char ton16_bits[] = {
  0x00, 0x00, 0x00, 0x60, 0x00, 0x70, 0xfc, 0x3f, 0xfe, 0x1f, 0x06, 0x1c,
  0x06, 0x1e, 0x16, 0x1e, 0x36, 0x1b, 0xf6, 0x1b, 0xe6, 0x19, 0xc6, 0x18,
  0x06, 0x18, 0xfe, 0x1f, 0xfe, 0x0f, 0x00, 0x00, };
