#define ton12_width 12
#define ton12_height 12
static unsigned char ton12_bits[] = {
  0x00, 0x00, 0x00, 0x04, 0x00, 0x02, 0xfe, 0x03, 0x02, 0x01, 0x82, 0x01,
  0x4a, 0x01, 0x52, 0x01, 0x22, 0x01, 0x02, 0x01, 0xfe, 0x01, 0x00, 0x00,
  };
