#define xy_width 16
#define xy_height 16
static unsigned char xy_bits[] = {
   0x01, 0x01, 0x83, 0x01, 0xc6, 0x00, 0x6c, 0x00, 0x38, 0x00, 0x10, 0x00,
   0x38, 0x18, 0x6c, 0x18, 0xc6, 0x00, 0x83, 0x19, 0x01, 0x19, 0x00, 0x18,
   0x00, 0x18, 0x00, 0x18, 0x00, 0x00, 0x00, 0x00};
