#define xy_mask_width 14
#define xy_mask_height 14
static unsigned char xy_mask_bits[] = {
   0xbe, 0xff, 0xdd, 0xff, 0xeb, 0xff, 0xf7, 0xff, 0x6b, 0xdf, 0xdd, 0xee,
   0xbe, 0xf5, 0xff, 0xfb, 0xff, 0xfd, 0xff, 0xfe, 0x7f, 0xff, 0xff, 0xff,
   0xff, 0xff, 0xff, 0xff};
